<svg xmlns="http://www.w3.org/2000/svg" xmlns:xlink="http://www.w3.org/1999/xlink" version="1.1" x="0px" y="0px" viewBox="0 0 100 125" enable-background="new 0 0 100 100" xml:space="preserve"><g><rect x="45.084" y="71.713" width="4.206" height="6.475"/><rect x="50.709" y="71.713" width="4.207" height="6.475"/><path d="M92.028,29.702H7.941l0.001,2.07H6.853v4.59h1.093l0.031,41.825h35.829v-7.395h12.263l-0.023,7.395h36.013l-0.025-41.825   h1.114v-4.59h-1.118L92.028,29.702z M16.426,65.459h-3.088v-4.804h3.088V65.459z M16.426,56.947h-3.088V46.703h3.088V56.947z    M16.426,42.996h-3.088v-4.805h3.088V42.996z M27.906,65.459h-3.088v-4.804h3.088V65.459z M27.906,56.947h-3.088V46.703h3.088   V56.947z M27.906,42.996h-3.088v-4.805h3.088V42.996z M34.674,65.459h-3.088v-4.804h3.088V65.459z M34.674,56.947h-3.088V46.703   h3.088V56.947z M34.674,42.996h-3.088v-4.805h3.088V42.996z M41.442,65.459h-3.088v-4.804h3.088V65.459z M41.442,56.947h-3.088   V46.703h3.088V56.947z M41.442,42.996h-3.088v-4.805h3.088V42.996z M48.209,65.459H45.12v-4.804h3.089V65.459z M48.209,56.947   H45.12V46.703h3.089V56.947z M48.209,42.996H45.12v-4.805h3.089V42.996z M54.976,65.459h-3.088v-4.804h3.088V65.459z    M54.976,56.947h-3.088V46.703h3.088V56.947z M54.976,42.996h-3.088v-4.805h3.088V42.996z M61.744,65.459h-3.089v-4.804h3.089   V65.459z M61.744,56.947h-3.089V46.703h3.089V56.947z M61.744,42.996h-3.089v-4.805h3.089V42.996z M68.511,65.459h-3.087v-4.804   h3.087V65.459z M68.511,56.947h-3.087V46.703h3.087V56.947z M68.511,42.996h-3.087v-4.805h3.087V42.996z M75.278,65.459H72.19   v-4.804h3.088V65.459z M75.278,56.947H72.19V46.703h3.088V56.947z M75.278,42.996H72.19v-4.805h3.088V42.996z M86.759,65.459   h-3.088v-4.804h3.088V65.459z M86.759,56.947h-3.088V46.703h3.088V56.947z M86.759,42.996h-3.088v-4.805h3.088V42.996z"/><polygon points="5.205,25.048 5.205,25.453 7.549,27.974 92.279,27.974 94.795,25.504 94.795,25.048  "/></g><text x="0" y="115" fill="#000000" font-size="5px" font-weight="bold" font-family="'Helvetica Neue', Helvetica, Arial-Unicode, Arial, Sans-serif"></text><text x="0" y="120" fill="#000000" font-size="5px" font-weight="bold" font-family="'Helvetica Neue', Helvetica, Arial-Unicode, Arial, Sans-serif"></text></svg>
